<mxfile host="app.diagrams.net" modified="2023-11-10T13:14:05.651Z" agent="Mozilla/5.0 (X11; Ubuntu; Linux x86_64; rv:109.0) Gecko/20100101 Firefox/118.0" etag="8yXrcucbfajMARGMNMH2" version="22.1.0" type="device">
  <diagram name="Page-1" id="1e3rihw1c_sqsJs1eWJH">
    <mxGraphModel dx="1017" dy="717" grid="1" gridSize="10" guides="1" tooltips="1" connect="1" arrows="1" fold="1" page="1" pageScale="1" pageWidth="850" pageHeight="1100" math="0" shadow="0">
      <root>
        <mxCell id="0" />
        <mxCell id="1" parent="0" />
        <mxCell id="Gu43bl89N6FQLPTdt8kW-9" style="edgeStyle=orthogonalEdgeStyle;rounded=0;orthogonalLoop=1;jettySize=auto;html=1;exitX=0.25;exitY=1;exitDx=0;exitDy=0;entryX=0.5;entryY=0;entryDx=0;entryDy=0;" edge="1" parent="1" source="Gu43bl89N6FQLPTdt8kW-5" target="Gu43bl89N6FQLPTdt8kW-6">
          <mxGeometry relative="1" as="geometry" />
        </mxCell>
        <mxCell id="Gu43bl89N6FQLPTdt8kW-12" value="Found AprilTag" style="edgeLabel;html=1;align=center;verticalAlign=middle;resizable=0;points=[];" vertex="1" connectable="0" parent="Gu43bl89N6FQLPTdt8kW-9">
          <mxGeometry x="0.1364" y="1" relative="1" as="geometry">
            <mxPoint x="15" y="-3" as="offset" />
          </mxGeometry>
        </mxCell>
        <mxCell id="Gu43bl89N6FQLPTdt8kW-5" value="Search for AprilTag" style="rounded=1;whiteSpace=wrap;html=1;" vertex="1" parent="1">
          <mxGeometry x="305" y="210" width="120" height="60" as="geometry" />
        </mxCell>
        <mxCell id="Gu43bl89N6FQLPTdt8kW-10" style="edgeStyle=orthogonalEdgeStyle;rounded=0;orthogonalLoop=1;jettySize=auto;html=1;exitX=1;exitY=0.5;exitDx=0;exitDy=0;entryX=0;entryY=0.5;entryDx=0;entryDy=0;" edge="1" parent="1" source="Gu43bl89N6FQLPTdt8kW-6" target="Gu43bl89N6FQLPTdt8kW-8">
          <mxGeometry relative="1" as="geometry" />
        </mxCell>
        <mxCell id="Gu43bl89N6FQLPTdt8kW-13" value="Picked Up Object" style="edgeLabel;html=1;align=center;verticalAlign=middle;resizable=0;points=[];" vertex="1" connectable="0" parent="Gu43bl89N6FQLPTdt8kW-10">
          <mxGeometry x="-0.6" y="1" relative="1" as="geometry">
            <mxPoint x="33" as="offset" />
          </mxGeometry>
        </mxCell>
        <mxCell id="Gu43bl89N6FQLPTdt8kW-6" value="Pick Up object with AprilTag" style="rounded=1;whiteSpace=wrap;html=1;" vertex="1" parent="1">
          <mxGeometry x="185" y="400" width="120" height="60" as="geometry" />
        </mxCell>
        <mxCell id="Gu43bl89N6FQLPTdt8kW-11" style="edgeStyle=orthogonalEdgeStyle;rounded=0;orthogonalLoop=1;jettySize=auto;html=1;exitX=0.5;exitY=0;exitDx=0;exitDy=0;entryX=0.75;entryY=1;entryDx=0;entryDy=0;" edge="1" parent="1" source="Gu43bl89N6FQLPTdt8kW-8" target="Gu43bl89N6FQLPTdt8kW-5">
          <mxGeometry relative="1" as="geometry" />
        </mxCell>
        <mxCell id="Gu43bl89N6FQLPTdt8kW-14" value="Object In Box" style="edgeLabel;html=1;align=center;verticalAlign=middle;resizable=0;points=[];" vertex="1" connectable="0" parent="Gu43bl89N6FQLPTdt8kW-11">
          <mxGeometry x="0.1574" y="1" relative="1" as="geometry">
            <mxPoint x="17" y="-2" as="offset" />
          </mxGeometry>
        </mxCell>
        <mxCell id="Gu43bl89N6FQLPTdt8kW-8" value="Put Object in box" style="rounded=1;whiteSpace=wrap;html=1;" vertex="1" parent="1">
          <mxGeometry x="440" y="400" width="120" height="60" as="geometry" />
        </mxCell>
      </root>
    </mxGraphModel>
  </diagram>
</mxfile>
